{"title":"Love &amp; Love Only - Sony Music 720p DVD Rip x264 1.2 GB - Sha","uid":11243708,"size":1293226606,"categoryP":"video","categoryS":"music_videos","magnet":"?xt=urn:btih:67be6ea1c73c60952d664b8ea4d4d7a4cd7b7637&amp;dn=Love+%26amp%3B+Love+Only+-+Sony+Music+720p+DVD+Rip+x264+1.2+GB+-+Sha&amp;tr=udp%3A%2F%2Ftracker.openbittorrent.com%3A80&amp;tr=udp%3A%2F%2Fopen.demonii.com%3A1337&amp;tr=udp%3A%2F%2Ftracker.coppersurfer.tk%3A6969&amp;tr=udp%3A%2F%2Fexodus.desync.com%3A6969","seeders":1,"leechers":0,"uploader":"TeamXDN","files":-1,"time":1413701613,"description":"Love &amp; Love Only - Sony Music 720p DVD Rip x264 1.2 GB - Shammu\n\nFormat                                   : MPEG-4\nFormat profile                           : Base Media\nCodec ID                                 : isom\nFile size                                : 1.20 GiB\nDuration                                 : 2h 15mn\nOverall bit rate                         : 1 272 Kbps\nEncoded date                             : UTC 2014-10-19 04:15:34\nTagged date                              : UTC 2014-10-19 04:15:34\n\nVideo\nID                                       : 1\nFormat                                   : AVC\nFormat/Info                              : Advanced Video Codec\nFormat profile                           : &lt;a class=&quot;__cf_email__&quot; href=&quot;/cdn-cgi/l/email-protection&quot; data-cfemail=&quot;672f0e000f272b544956&quot;&gt;[email&amp;#160;protected]&lt;/a&gt;&lt;script cf-hash='f9e31' type=&quot;text/javascript&quot;&gt;\n/* &lt;![CDATA[ */!function(){try{var t=&quot;currentScript&quot;in document?document.currentScript:function(){for(var t=document.getElementsByTagName(&quot;script&quot;),e=t.length;e--;)if(t[e].getAttribute(&quot;cf-hash&quot;))return t[e]}();if(t&amp;&amp;t.previousSibling){var e,r,n,i,c=t.previousSibling,a=c.getAttribute(&quot;data-cfemail&quot;);if(a){for(e=&quot;&quot;,r=parseInt(a.substr(0,2),16),n=2;a.length-n;n+=2)i=parseInt(a.substr(n,2),16)^r,e+=String.fromCharCode(i);e=document.createTextNode(e),c.parentNode.replaceChild(e,c)}}}catch(u){}}();/* ]]&gt; */&lt;/script&gt;\nFormat settings, CABAC                   : Yes\nFormat settings, ReFrames                : 5 frames\nCodec ID                                 : avc1\nCodec ID/Info                            : Advanced Video Coding\nDuration                                 : 2h 15mn\nBit rate                                 : 1 045 Kbps\nMaximum bit rate                         : 6 537 Kbps\nWidth                                    : 1 280 pixels\nHeight                                   : 544 pixels\nDisplay aspect ratio                     : 2.35:1\nFrame rate mode                          : Constant\nFrame rate                               : 25.000 fps\nColor space                              : YUV\nChroma subsampling                       : 4:2:0\nBit depth                                : 8 bits\nScan type                                : Progressive\nBits/(Pixel*Frame)                       : 0.060\nStream size                              : 1 014 MiB (82%)\nEncoded date                             : UTC 2014-10-19 01:29:17\nTagged date                              : UTC 2014-10-19 04:19:08\n\nAudio\nID                                       : 2\nFormat                                   : AC-3\nFormat/Info                              : Audio Coding 3\nMode extension                           : CM (complete main)\nFormat settings, Endianness              : Big\nCodec ID                                 : ac-3\nDuration                                 : 2h 15mn\nBit rate mode                            : Constant\nBit rate                                 : 224 Kbps\nChannel(s)                               : 2 channels\nChannel positions                        : Front: L R\nSampling rate                            : 48.0 KHz\nBit depth                                : 16 bits\nCompression mode                         : Lossy\nStream size                              : 217 MiB (18%)\nEncoded date                             : UTC 2014-10-19 04:17:39\nTagged date                              : UTC 2014-10-19 04:19:08","torrent":{"xt":"urn:btih:67be6ea1c73c60952d664b8ea4d4d7a4cd7b7637","amp;dn":"Love+%26amp%3B+Love+Only+-+Sony+Music+720p+DVD+Rip+x264+1.2+GB+-+Sha","amp;tr":["udp%3A%2F%2Ftracker.openbittorrent.com%3A80","udp%3A%2F%2Fopen.demonii.com%3A1337","udp%3A%2F%2Ftracker.coppersurfer.tk%3A6969","udp%3A%2F%2Fexodus.desync.com%3A6969"],"infoHash":"67be6ea1c73c60952d664b8ea4d4d7a4cd7b7637","infoHashBuffer":{"type":"Buffer","data":[103,190,110,161,199,60,96,149,45,102,75,142,164,212,215,164,205,123,118,55]},"announce":[],"urlList":[]}}